<?xml version="1.0" standalone="no"?>
<!DOCTYPE svg PUBLIC "-//W3C//DTD SVG 20010904//EN"
 "http://www.w3.org/TR/2001/REC-SVG-20010904/DTD/svg10.dtd">
<svg version="1.0" xmlns="http://www.w3.org/2000/svg"
 width="527.000000pt" height="240.000000pt" viewBox="0 0 527.000000 240.000000"
 preserveAspectRatio="xMidYMid meet">

<g transform="translate(0.000000,240.000000) scale(0.100000,-0.100000)"
fill="#000000" stroke="none">
<path d="M0 1200 l0 -1200 195 0 195 0 46 71 c26 39 55 76 66 82 10 7 37 46
59 87 42 77 71 116 158 209 44 47 51 60 56 110 4 31 15 92 25 136 10 44 21
121 25 170 7 101 12 125 26 125 5 0 6 -14 2 -32 -4 -18 -6 -53 -6 -78 1 -25 2
-62 3 -82 1 -21 -4 -46 -10 -58 -7 -13 -7 -20 0 -20 5 0 10 -11 10 -24 0 -14
4 -27 9 -31 5 -3 15 -30 22 -60 11 -48 10 -59 -8 -102 -11 -26 -28 -84 -38
-128 -9 -44 -21 -95 -26 -113 -6 -28 -5 -33 9 -30 12 2 22 25 34 77 21 93 37
131 53 131 8 0 12 12 11 33 0 20 3 31 11 30 8 -2 10 13 6 50 -6 67 8 107 41
107 13 0 28 6 34 13 12 14 5 57 -8 57 -5 0 -16 20 -26 45 -23 62 -14 126 35
233 21 48 42 97 46 109 5 20 9 21 27 10 16 -9 22 -9 25 1 5 12 54 17 65 7 7
-7 -44 -177 -70 -237 -11 -25 -18 -49 -15 -52 4 -3 1 -6 -6 -6 -9 0 -12 -21
-10 -72 2 -73 13 -113 28 -104 5 3 16 -3 26 -14 10 -11 14 -20 9 -21 -22 -2
45 -17 82 -18 48 -1 65 -17 58 -52 -5 -23 -5 -23 10 -5 9 11 16 28 16 38 0 22
33 24 54 3 15 -15 12 -36 -8 -64 -27 -36 -107 -108 -171 -152 -93 -65 -90 -63
-170 -105 -38 -19 -93 -58 -120 -85 -28 -27 -56 -49 -62 -49 -6 0 -14 -7 -17
-16 -9 -23 -8 -26 7 -19 6 4 3 -1 -7 -9 -11 -9 -25 -16 -32 -16 -6 0 -22 -16
-35 -35 -13 -19 -28 -35 -32 -35 -4 0 3 15 15 32 13 18 34 55 46 82 l23 49
-23 -6 c-13 -3 -39 -10 -58 -15 -19 -5 -34 -14 -32 -21 1 -7 -9 -26 -23 -43
-17 -20 -24 -39 -22 -57 l4 -26 111 -3 c124 -3 108 -11 175 93 18 27 47 60 66
72 19 13 39 33 45 45 7 13 25 25 43 29 18 3 43 13 55 21 13 8 49 25 80 37 57
23 112 58 119 76 2 6 8 9 12 7 5 -1 6 2 3 6 -3 5 8 20 25 33 18 13 44 53 65
97 19 41 34 76 34 77 0 2 -24 6 -52 10 -68 8 -113 23 -128 39 -8 11 -5 39 11
112 13 64 21 131 20 187 -1 76 3 99 29 163 16 42 30 84 30 94 0 28 22 41 46
27 102 -60 111 -68 129 -130 28 -90 29 -153 5 -272 -12 -60 -26 -120 -31 -133
-7 -17 -3 -35 17 -74 39 -78 114 -386 114 -472 0 -39 3 -88 6 -109 l7 -37 258
0 259 0 46 71 c26 39 55 76 66 82 10 7 37 46 59 87 42 77 71 116 158 209 44
47 51 60 56 110 4 31 15 92 25 136 10 44 21 121 25 170 7 101 12 125 26 125 5
0 6 -14 2 -32 -4 -18 -6 -53 -6 -78 1 -25 2 -62 3 -82 1 -21 -4 -46 -10 -58
-7 -13 -7 -20 0 -20 5 0 10 -11 10 -24 0 -14 4 -27 9 -31 5 -3 15 -30 22 -60
11 -48 10 -59 -8 -102 -11 -26 -28 -84 -38 -128 -9 -44 -21 -95 -26 -113 -6
-28 -5 -33 9 -30 12 2 22 25 34 77 21 93 37 131 53 131 8 0 12 12 11 33 0 20
3 31 11 30 8 -2 10 13 6 50 -6 67 8 107 41 107 13 0 28 6 34 13 12 14 5 57 -8
57 -5 0 -16 20 -26 45 -23 62 -14 126 35 233 21 48 42 97 46 109 5 20 9 21 27
10 16 -9 22 -9 25 1 5 12 54 17 65 7 7 -7 -44 -177 -70 -237 -11 -25 -18 -49
-15 -52 4 -3 1 -6 -6 -6 -9 0 -12 -21 -10 -72 2 -73 13 -113 28 -104 5 3 16
-3 26 -14 10 -11 14 -20 9 -21 -22 -2 45 -17 82 -18 48 -1 65 -17 58 -52 -5
-23 -5 -23 10 -5 9 11 16 28 16 38 0 22 33 24 54 3 15 -15 12 -36 -8 -64 -27
-36 -107 -108 -171 -152 -93 -65 -90 -63 -170 -105 -38 -19 -93 -58 -120 -85
-28 -27 -56 -49 -62 -49 -6 0 -14 -7 -17 -16 -9 -23 -8 -26 7 -19 6 4 3 -1 -7
-9 -11 -9 -25 -16 -32 -16 -6 0 -22 -16 -35 -35 -13 -19 -28 -35 -32 -35 -4 0
3 15 15 32 13 18 34 55 46 82 l23 49 -23 -6 c-13 -3 -39 -10 -58 -15 -19 -5
-34 -14 -32 -21 1 -7 -9 -26 -23 -43 -17 -20 -24 -39 -22 -57 l4 -26 111 -3
c124 -3 108 -11 175 93 18 27 47 60 66 72 19 13 39 33 45 45 7 13 25 25 43 29
18 3 43 13 55 21 13 8 49 25 80 37 57 23 112 58 119 76 2 6 8 9 12 7 5 -1 6 2
3 6 -3 5 8 20 25 33 18 13 44 53 65 97 19 41 34 76 34 77 0 2 -24 6 -52 10
-68 8 -113 23 -128 39 -8 11 -5 39 11 112 13 64 21 131 20 187 -1 76 3 99 29
163 16 42 30 84 30 94 0 28 22 41 46 27 102 -60 111 -68 129 -130 28 -90 29
-153 5 -272 -12 -60 -26 -120 -31 -133 -7 -17 -3 -35 17 -74 39 -78 114 -386
114 -472 0 -39 3 -88 6 -109 l7 -37 258 0 259 0 46 71 c26 39 55 76 66 82 10
7 37 46 59 87 42 77 71 116 158 209 44 47 51 60 56 110 4 31 15 92 25 136 10
44 21 121 25 170 7 101 12 125 26 125 5 0 6 -14 2 -32 -4 -18 -6 -53 -6 -78 1
-25 2 -62 3 -82 1 -21 -4 -46 -10 -58 -7 -13 -7 -20 0 -20 5 0 10 -11 10 -24
0 -14 4 -27 9 -31 5 -3 15 -30 22 -60 11 -48 10 -59 -8 -102 -11 -26 -28 -84
-38 -128 -9 -44 -21 -95 -26 -113 -6 -28 -5 -33 9 -30 12 2 22 25 34 77 21 93
37 131 53 131 8 0 12 12 11 32 0 21 3 32 11 31 8 -2 10 13 6 50 -6 67 8 107
41 107 13 0 28 6 34 13 12 14 5 57 -8 57 -5 0 -16 20 -26 45 -23 62 -14 126
35 233 21 48 42 97 46 109 5 20 9 21 27 10 16 -9 22 -9 25 1 5 12 54 17 65 7
7 -7 -44 -177 -70 -237 -11 -25 -18 -49 -15 -52 4 -3 1 -6 -6 -6 -9 0 -12 -21
-10 -72 2 -73 13 -113 28 -104 5 3 16 -3 26 -14 10 -11 14 -20 9 -21 -22 -2
45 -17 82 -18 48 -1 65 -17 58 -52 -5 -23 -5 -23 10 -5 9 11 16 28 16 38 0 22
33 24 54 3 15 -15 12 -36 -8 -64 -27 -36 -107 -108 -171 -152 -93 -65 -90 -63
-170 -105 -38 -19 -93 -58 -120 -85 -28 -27 -56 -49 -62 -49 -6 0 -14 -7 -17
-16 -9 -23 -8 -26 7 -19 6 4 3 -1 -7 -9 -11 -9 -25 -16 -32 -16 -6 0 -22 -16
-35 -35 -13 -19 -28 -35 -32 -35 -4 0 3 15 15 33 13 17 34 54 46 81 l23 49
-23 -6 c-13 -3 -39 -10 -58 -15 -19 -5 -34 -14 -32 -21 1 -7 -9 -26 -23 -43
-17 -20 -24 -39 -22 -57 l4 -26 111 -3 c124 -3 108 -11 175 93 18 27 47 60 66
72 19 13 39 33 45 45 7 13 25 25 43 29 18 3 43 13 55 21 13 8 49 25 80 37 57
23 112 58 119 76 2 5 8 9 12 7 5 -1 6 2 3 6 -3 5 8 20 25 33 18 13 44 53 65
97 19 41 34 76 34 77 0 2 -24 6 -52 10 -68 8 -113 23 -128 39 -8 11 -5 39 11
112 13 64 21 131 20 187 -1 76 3 99 29 163 16 42 30 84 30 94 0 28 22 41 46
27 102 -60 111 -68 129 -130 28 -90 29 -153 5 -272 -12 -60 -26 -120 -31 -133
-7 -17 -3 -35 16 -73 42 -81 107 -348 115 -469 4 -58 8 425 8 1073 l2 1177
-2635 0 -2635 0 0 -1200z m1411 980 c6 0 7 -4 4 -10 -7 -12 -45 -13 -72 -3
-16 6 -15 8 7 14 14 4 31 5 38 3 8 -2 18 -4 23 -4z m1800 0 c6 0 7 -4 4 -10
-7 -12 -45 -13 -72 -3 -16 6 -15 8 7 14 14 4 31 5 38 3 8 -2 18 -4 23 -4z
m1800 0 c6 0 7 -4 4 -10 -7 -12 -45 -13 -72 -3 -16 6 -15 8 7 14 14 4 31 5 38
3 8 -2 18 -4 23 -4z m-3491 -10 c0 -5 -6 -10 -14 -10 -8 0 -18 5 -21 10 -3 6
3 10 14 10 12 0 21 -4 21 -10z m1800 0 c0 -5 -6 -10 -14 -10 -8 0 -18 5 -21
10 -3 6 3 10 14 10 12 0 21 -4 21 -10z m1800 0 c0 -5 -6 -10 -14 -10 -8 0 -18
5 -21 10 -3 6 3 10 14 10 12 0 21 -4 21 -10z m-3883 -487 c43 -20 73 -66 73
-111 0 -29 -2 -32 -19 -22 -11 5 -38 10 -60 10 -35 0 -41 -3 -47 -25 -3 -14
-1 -32 6 -39 16 -20 69 -31 83 -17 6 6 19 11 29 11 14 0 18 -8 18 -33 0 -61
-44 -76 -92 -30 -15 15 -28 21 -28 15 0 -8 -15 -10 -45 -7 -49 4 -55 0 -27
-21 15 -12 15 -13 -10 -14 -29 0 -45 14 -28 25 5 3 10 13 10 20 0 12 -6 12
-35 -3 -39 -19 -43 -31 -17 -52 18 -16 44 -20 53 -7 3 4 23 3 45 -2 21 -5 33
-9 26 -10 -7 -1 -10 -6 -6 -13 5 -8 -2 -9 -25 -5 -24 5 -31 3 -29 -6 5 -14 68
-23 68 -9 0 18 41 21 47 5 10 -25 -33 -53 -79 -53 -53 0 -73 12 -104 66 -22
38 -26 53 -22 97 3 29 11 66 18 82 7 17 12 34 11 38 -3 15 39 75 70 102 36 29
67 32 116 8z m1800 0 c43 -20 73 -66 73 -111 0 -29 -2 -32 -19 -22 -11 5 -38
10 -60 10 -35 0 -41 -3 -47 -25 -3 -14 -1 -32 6 -39 16 -20 69 -31 83 -17 6 6
19 11 29 11 14 0 18 -8 18 -33 0 -61 -44 -76 -92 -30 -15 15 -28 21 -28 15 0
-8 -15 -10 -45 -7 -49 4 -55 0 -27 -21 15 -12 15 -13 -10 -14 -29 0 -45 14
-28 25 5 3 10 13 10 20 0 12 -6 12 -35 -3 -39 -19 -43 -31 -17 -52 18 -16 44
-20 53 -7 3 4 23 3 45 -2 21 -5 33 -9 26 -10 -7 -1 -10 -6 -6 -13 5 -8 -2 -9
-25 -5 -24 5 -31 3 -29 -6 5 -14 68 -23 68 -9 0 18 41 21 47 5 10 -25 -33 -53
-79 -53 -53 0 -73 12 -104 66 -22 38 -26 53 -22 97 3 29 11 66 18 82 7 17 12
34 11 38 -3 15 39 75 70 102 36 29 67 32 116 8z m1800 0 c43 -20 73 -66 73
-111 0 -29 -2 -32 -19 -22 -11 5 -38 10 -60 10 -35 0 -41 -3 -47 -25 -3 -14
-1 -32 6 -39 16 -20 69 -31 83 -17 6 6 19 11 29 11 14 0 18 -8 18 -33 0 -61
-44 -76 -92 -30 -15 15 -28 21 -28 15 0 -8 -15 -10 -45 -7 -49 4 -55 0 -27
-21 15 -12 15 -13 -10 -14 -29 0 -45 14 -28 25 5 3 10 13 10 20 0 12 -6 12
-35 -3 -39 -19 -43 -31 -17 -52 18 -16 44 -20 53 -7 3 4 23 3 45 -2 21 -5 33
-9 26 -10 -7 -1 -10 -6 -6 -13 5 -8 -2 -9 -25 -5 -24 5 -31 3 -29 -6 5 -14 68
-23 68 -9 0 18 41 21 47 5 10 -25 -33 -53 -79 -53 -53 0 -73 12 -104 66 -22
38 -26 53 -22 97 3 29 11 66 18 82 7 17 12 34 11 38 -3 15 39 75 70 102 36 29
67 32 116 8z m-3542 -153 c8 -13 -5 -13 -25 0 -13 8 -13 10 2 10 9 0 20 -4 23
-10z m1800 0 c8 -13 -5 -13 -25 0 -13 8 -13 10 2 10 9 0 20 -4 23 -10z m1800
0 c8 -13 -5 -13 -25 0 -13 8 -13 10 2 10 9 0 20 -4 23 -10z m-3688 -137 c-3
-2 -16 -1 -29 3 l-23 8 25 6 c23 6 39 -4 27 -17z m1800 0 c-3 -2 -16 -1 -29 3
l-23 8 25 6 c23 6 39 -4 27 -17z m1800 0 c-3 -2 -16 -1 -29 3 l-23 8 25 6 c23
6 39 -4 27 -17z m-3882 -177 c-8 -25 -19 -55 -25 -67 -7 -12 -21 -45 -31 -73
l-19 -51 6 45 c6 51 40 159 56 178 21 24 26 11 13 -32z m1800 0 c-8 -25 -19
-55 -25 -67 -7 -12 -21 -45 -31 -73 l-19 -51 6 45 c6 51 40 159 56 178 21 24
26 11 13 -32z m1800 0 c-8 -25 -19 -55 -25 -67 -7 -12 -21 -45 -31 -73 l-19
-51 6 45 c6 51 40 159 56 178 21 24 26 11 13 -32z m-3830 -1166 c-6 -9 -9 -9
-16 1 -10 17 0 34 13 21 6 -6 7 -16 3 -22z m1800 0 c-6 -9 -9 -9 -16 1 -10 17
0 34 13 21 6 -6 7 -16 3 -22z m1800 0 c-6 -9 -9 -9 -16 1 -10 17 0 34 13 21 6
-6 7 -16 3 -22z"/>
<path d="M1076 1565 c4 -9 0 -15 -10 -15 -9 0 -16 -6 -16 -13 0 -20 33 -47 56
-47 47 0 61 59 19 78 -36 17 -56 15 -49 -3z"/>
<path d="M2876 1565 c4 -9 0 -15 -10 -15 -9 0 -16 -6 -16 -13 0 -20 33 -47 56
-47 47 0 61 59 19 78 -36 17 -56 15 -49 -3z"/>
<path d="M4676 1565 c4 -9 0 -15 -10 -15 -9 0 -16 -6 -16 -13 0 -20 33 -47 56
-47 47 0 61 59 19 78 -36 17 -56 15 -49 -3z"/>
</g>
</svg>
