<?xml version="1.0" standalone="no"?>
<!DOCTYPE svg PUBLIC "-//W3C//DTD SVG 20010904//EN"
 "http://www.w3.org/TR/2001/REC-SVG-20010904/DTD/svg10.dtd">
<svg version="1.0" xmlns="http://www.w3.org/2000/svg"
 width="512.000000pt" height="512.000000pt" viewBox="0 0 512.000000 512.000000"
 preserveAspectRatio="xMidYMid meet">

<g transform="translate(0.000000,512.000000) scale(0.100000,-0.100000)"
fill="#000000" stroke="none">
<path d="M1993 5038 c-27 -13 -47 -60 -38 -90 4 -13 61 -77 127 -144 l119
-121 -144 -249 c-79 -137 -147 -257 -150 -267 -16 -43 8 -69 256 -282 311
-266 349 -295 464 -351 101 -50 702 -264 740 -264 14 0 33 4 43 10 10 5 84
125 165 265 87 151 154 255 162 255 28 0 124 -32 121 -40 -2 -5 -61 -110 -133
-234 l-130 -226 -68 0 c-38 0 -76 -4 -86 -10 -30 -15 -241 -392 -241 -428 0
-35 29 -71 58 -73 28 -2 75 1 104 7 25 5 30 1 60 -63 37 -77 65 -95 115 -74
24 10 52 51 141 205 68 118 112 204 112 221 0 15 -13 51 -29 79 l-30 51 145
253 c143 247 146 252 178 252 59 0 101 63 74 113 -7 14 -211 221 -454 460
l-440 435 -596 161 c-328 89 -602 161 -610 160 -7 0 -23 -5 -35 -11z m1611
-1926 c14 -27 12 -32 -31 -108 -25 -43 -47 -80 -49 -82 -1 -2 -12 6 -23 17
-11 11 -32 23 -46 27 l-25 6 27 47 c66 114 72 121 103 121 22 0 33 -7 44 -28z"/>
<path d="M1529 4731 c-37 -29 -30 -73 26 -171 64 -112 81 -130 122 -130 40 0
83 37 83 72 0 24 -90 190 -123 226 -25 27 -76 29 -108 3z"/>
<path d="M1712 4260 c-28 -22 -75 -70 -105 -107 -152 -188 -215 -380 -204
-618 8 -173 28 -232 165 -477 103 -186 148 -359 158 -608 3 -74 10 -150 16
-168 12 -41 52 -88 89 -108 27 -13 29 -19 29 -72 0 -33 8 -74 19 -97 17 -37
81 -105 100 -105 5 0 11 -30 15 -66 10 -101 46 -157 126 -200 29 -16 57 -19
175 -19 131 0 143 2 185 25 68 38 103 95 109 179 6 68 7 70 48 100 54 39 84
98 91 178 4 59 7 64 42 87 23 15 47 45 64 77 23 46 26 65 26 149 0 177 33 365
89 505 17 41 59 125 95 188 37 63 66 124 66 136 0 26 -51 81 -74 81 -43 0 -69
-27 -129 -134 -117 -208 -167 -346 -189 -523 l-12 -93 -93 0 -93 0 0 365 0
365 48 1 c85 1 144 15 164 39 26 31 23 82 -5 108 -20 19 -35 22 -114 22 l-91
0 -6 34 c-10 53 -37 80 -79 80 -46 0 -76 -27 -83 -76 l-7 -38 -57 0 -58 0 -4
93 c-4 104 -19 145 -75 201 -55 55 -110 77 -189 77 -198 0 -325 -196 -245
-376 46 -102 127 -152 264 -162 l87 -6 0 -363 0 -364 -93 0 -93 0 -17 108
c-21 145 -75 305 -142 427 -136 245 -164 327 -165 473 0 202 76 380 227 530
93 94 103 123 58 167 -36 37 -74 32 -133 -15z m307 -594 c37 -20 51 -55 51
-131 l0 -65 -76 0 c-70 0 -78 2 -105 29 -24 24 -29 38 -29 76 0 86 80 131 159
91z m331 -731 l0 -365 -60 0 -60 0 0 365 0 365 60 0 60 0 0 -365z m350 -560
c0 -22 -8 -43 -20 -55 -19 -19 -33 -20 -383 -20 -411 0 -407 -1 -407 71 l0 39
405 0 405 0 0 -35z m-130 -263 c0 -15 -7 -38 -16 -50 -15 -22 -18 -22 -256
-22 -270 0 -278 2 -278 67 l0 33 275 0 275 0 0 -28z m-140 -263 c0 -65 -9 -69
-133 -69 -75 0 -117 4 -125 12 -7 7 -12 29 -12 50 l0 38 135 0 135 0 0 -31z"/>
<path d="M1011 4213 c-33 -28 -37 -75 -9 -106 34 -38 194 -127 229 -127 36 0
79 39 79 72 0 39 -26 65 -125 123 -100 59 -138 67 -174 38z"/>
<path d="M493 3586 c-88 -29 -159 -92 -195 -173 -17 -40 -21 -100 -38 -701
-25 -825 -25 -971 -4 -1043 38 -130 57 -153 436 -534 l358 -361 0 -57 0 -57
-65 0 c-99 0 -157 -35 -190 -113 -23 -57 -21 -308 4 -362 22 -47 64 -89 106
-105 22 -9 191 -10 650 -5 595 7 622 8 663 27 26 12 54 36 70 61 27 40 27 43
27 211 0 162 -1 173 -23 209 -37 59 -95 87 -180 87 l-72 0 0 336 c0 566 -8
587 -320 854 -104 89 -238 212 -297 274 -60 61 -121 121 -138 132 -101 71
-259 59 -340 -24 -16 -17 -33 -32 -37 -32 -5 0 -8 226 -8 503 0 551 -3 588
-60 703 -35 71 -85 126 -143 155 -52 27 -147 34 -204 15z m133 -162 c37 -18
73 -71 95 -139 9 -29 14 -184 19 -585 l5 -545 26 -66 c40 -104 107 -188 318
-402 179 -180 199 -197 230 -197 47 0 81 33 81 79 0 32 -15 50 -179 215 -98
100 -184 191 -190 203 -6 12 -11 40 -11 63 0 34 6 48 31 71 34 32 91 39 132
18 11 -7 77 -69 146 -139 69 -70 205 -195 302 -278 252 -216 249 -205 249
-714 l0 -338 -335 0 -335 0 0 87 0 87 -374 376 c-433 434 -427 426 -434 590
-4 89 20 1067 34 1393 6 140 8 150 32 179 27 32 73 57 105 58 11 0 34 -7 53
-16z m1529 -3049 l0 -130 -600 -7 c-461 -5 -601 -4 -607 5 -5 7 -7 66 -6 132
l3 120 255 5 c140 3 413 5 605 5 l350 0 0 -130z"/>
<path d="M1974 450 c-55 -22 -70 -95 -29 -135 51 -52 145 -16 145 54 0 57 -66
102 -116 81z"/>
<path d="M4470 3591 c-82 -25 -149 -87 -192 -177 -55 -116 -58 -153 -58 -695
0 -273 -3 -498 -6 -502 -4 -3 -20 8 -38 25 -83 83 -239 94 -341 25 -16 -12
-75 -68 -129 -125 -55 -57 -190 -182 -300 -277 -210 -181 -251 -229 -285 -326
-34 -101 -41 -188 -41 -533 l0 -336 -59 0 c-71 0 -106 -12 -144 -48 -53 -50
-61 -76 -65 -226 -3 -89 0 -153 7 -178 15 -50 73 -114 114 -127 18 -5 295 -12
649 -16 l617 -7 46 22 c29 14 56 38 73 63 27 40 27 42 27 218 l0 177 -31 39
c-44 55 -85 73 -171 73 l-73 0 0 57 0 57 354 356 c454 457 456 459 456 760 0
285 -39 1460 -50 1499 -37 139 -224 243 -360 202z m149 -179 c64 -47 59 -1 82
-772 11 -388 19 -754 17 -815 -5 -178 5 -164 -434 -606 l-374 -375 0 -87 0
-87 -336 0 -336 0 4 373 c4 348 5 376 25 429 12 31 29 68 38 82 10 15 95 92
189 173 94 80 228 204 297 274 69 70 136 132 147 138 40 21 97 13 131 -18 25
-23 31 -37 31 -71 0 -23 -5 -51 -11 -63 -6 -12 -92 -103 -190 -203 -161 -162
-179 -184 -179 -214 0 -46 33 -80 79 -80 32 0 50 15 204 168 93 92 196 201
229 242 69 85 123 190 138 269 6 32 10 254 10 540 0 526 4 570 55 657 42 72
123 92 184 46z m-436 -2921 c4 -4 6 -64 5 -132 l-3 -124 -595 4 c-462 3 -598
6 -608 16 -11 10 -12 38 -7 135 l8 123 596 -7 c328 -4 600 -11 604 -15z"/>
<path d="M3084 450 c-55 -22 -70 -95 -29 -135 51 -52 145 -16 145 54 0 57 -66
102 -116 81z"/>
</g>
</svg>
